<?xml version="1.0" encoding="UTF-8" standalone="no"?>
<!DOCTYPE svg PUBLIC "-//W3C//DTD SVG 1.1//EN" "http://www.w3.org/Graphics/SVG/1.1/DTD/svg11.dtd">
<svg width="100%" height="100%" viewBox="0 0 270 270" version="1.1" xmlns="http://www.w3.org/2000/svg" xmlns:xlink="http://www.w3.org/1999/xlink" xml:space="preserve" xmlns:serif="http://www.serif.com/" style="fill-rule:evenodd;clip-rule:evenodd;stroke-linejoin:round;stroke-miterlimit:2;">
    <g id="Artboard1" transform="matrix(1.16379,0,0,1.09312,0,0)">
        <rect x="0" y="0" width="232" height="247" style="fill:rgb(65,155,137);"/>
        <g transform="matrix(0.370898,0,0,0.394878,-340.422,-115.847)">
            <path d="M1059.79,792.542C1054.8,809.282 1039.28,821.501 1020.92,821.501C998.545,821.501 980.378,803.334 980.378,780.956C980.378,768.575 985.94,757.482 994.699,750.043C990.97,743.112 987.539,735.997 984.42,728.718L982.139,723.394L992.787,718.833L995.068,724.157C997.948,730.879 1001.11,737.454 1004.53,743.866C1009.55,741.645 1015.09,740.411 1020.92,740.411C1023.32,740.411 1025.66,740.619 1027.94,741.018L1202.86,391.193C1194.97,383.794 1190.04,373.28 1190.04,361.625C1190.04,339.248 1208.21,321.08 1230.59,321.08C1252.96,321.08 1271.13,339.248 1271.13,361.625C1271.13,373.277 1266.21,383.788 1258.32,391.187L1433.24,741.016C1435.51,740.619 1437.85,740.411 1440.24,740.411C1446.08,740.411 1451.63,741.647 1456.64,743.871C1460.07,737.458 1463.23,730.882 1466.11,724.157L1468.39,718.833L1479.04,723.395L1476.76,728.719C1473.63,736 1470.21,743.115 1466.47,750.048C1475.23,757.487 1480.79,768.578 1480.79,780.956C1480.79,803.334 1462.62,821.501 1440.24,821.501C1421.89,821.501 1406.37,809.282 1401.38,792.542L1059.79,792.542ZM1016.35,764.193C1008.98,766.201 1003.55,772.95 1003.55,780.956C1003.55,790.544 1011.34,798.328 1020.92,798.328C1023.07,798.328 1025.12,797.939 1027.01,797.229C1029.66,796.235 1032.01,794.612 1033.86,792.542C1034.62,791.693 1035.3,790.768 1035.89,789.781C1037.42,787.194 1038.29,784.177 1038.29,780.956C1038.29,771.369 1030.51,763.585 1020.92,763.585C1019.34,763.585 1017.81,763.797 1016.35,764.193ZM1223.57,401.564L1144.5,559.707L1316.68,559.707L1237.61,401.563C1235.33,401.962 1232.98,402.17 1230.59,402.17C1228.19,402.17 1225.85,401.962 1223.57,401.564ZM1412.52,751.384L1335.42,597.195L1249.33,769.373L1401.38,769.373C1403.45,762.41 1407.35,756.229 1412.52,751.384ZM1059.79,769.373L1211.85,769.373L1125.76,597.195L1048.66,751.393C1053.82,756.236 1057.71,762.414 1059.79,769.373ZM1246.74,368.02C1246.76,367.973 1246.78,367.927 1246.8,367.88C1247.55,365.938 1247.96,363.829 1247.96,361.625C1247.96,359.768 1247.67,357.978 1247.12,356.299C1244.87,349.314 1238.32,344.254 1230.59,344.254C1222.86,344.254 1216.3,349.314 1214.05,356.3C1213.51,357.978 1213.21,359.768 1213.21,361.625C1213.21,363.829 1213.63,365.939 1214.38,367.88C1214.4,367.93 1214.42,367.981 1214.44,368.031C1216.99,374.452 1223.26,378.996 1230.59,378.996C1237.92,378.996 1244.19,374.447 1246.74,368.02ZM1434.16,797.233C1436.06,797.941 1438.11,798.328 1440.24,798.328C1449.83,798.328 1457.62,790.544 1457.62,780.956C1457.62,772.955 1452.19,766.21 1444.83,764.197C1443.37,763.798 1441.83,763.585 1440.24,763.585C1430.66,763.585 1422.87,771.369 1422.87,780.956C1422.87,784.181 1423.75,787.201 1425.29,789.79C1425.87,790.774 1426.55,791.695 1427.3,792.542C1429.16,794.615 1431.51,796.24 1434.16,797.233ZM1144.5,582.876L1230.59,755.054L1316.68,582.876L1144.5,582.876ZM1276.33,371.496L1270.63,370.467L1272.68,359.068L1278.38,360.097C1286.32,361.53 1294.13,363.313 1301.81,365.429L1307.39,366.969L1304.31,378.136L1298.73,376.596C1291.39,374.572 1283.91,372.867 1276.33,371.496ZM1331.24,387.984L1325.92,385.704L1330.48,375.056L1335.8,377.337C1343.19,380.501 1350.41,383.989 1357.43,387.781L1362.53,390.532L1357.03,400.726L1351.93,397.975C1345.21,394.347 1338.31,391.011 1331.24,387.984ZM1381.09,416.34L1376.4,412.931L1383.22,403.567L1387.9,406.976C1394.38,411.694 1400.65,416.696 1406.67,421.964L1411.03,425.777L1403.4,434.496L1399.04,430.683C1393.28,425.643 1387.29,420.856 1381.09,416.34ZM1423.41,455.051L1419.6,450.691L1428.32,443.066L1432.13,447.426C1437.4,453.449 1442.4,459.71 1447.12,466.191L1450.53,470.873L1441.16,477.691L1437.76,473.009C1433.24,466.807 1428.45,460.815 1423.41,455.051ZM1456.12,502.163L1453.37,497.066L1463.56,491.565L1466.31,496.662C1470.11,503.69 1473.59,510.906 1476.76,518.293L1479.04,523.617L1468.39,528.178L1466.11,522.854C1463.08,515.788 1459.75,508.885 1456.12,502.163ZM1477.5,555.366L1475.96,549.783L1487.13,546.704L1488.67,552.287C1490.78,559.963 1492.57,567.776 1494,575.71L1495.03,581.41L1483.63,583.468L1482.6,577.769C1481.23,570.18 1479.52,562.707 1477.5,555.366ZM1486.42,612.012L1486.17,606.226L1497.74,605.714L1498,611.5C1498.17,615.48 1498.26,619.482 1498.26,623.506C1498.26,627.529 1498.17,631.531 1498,635.511L1497.74,641.298L1486.17,640.786L1486.42,634.999C1486.59,631.189 1486.68,627.357 1486.68,623.506C1486.68,619.654 1486.59,615.822 1486.42,612.012ZM1482.6,669.243L1483.63,663.543L1495.03,665.602L1494,671.301C1492.57,679.236 1490.78,687.049 1488.66,694.725L1487.13,700.308L1475.96,697.229L1477.5,691.646C1479.52,684.305 1481.23,676.832 1482.6,669.243ZM1399.04,816.328L1403.4,812.515L1411.03,821.235L1406.67,825.047C1400.65,830.315 1394.38,835.317 1387.9,840.036L1383.22,843.444L1376.4,834.08L1381.09,830.671C1387.29,826.156 1393.28,821.369 1399.04,816.328ZM1351.93,849.036L1357.03,846.286L1362.53,856.48L1357.43,859.23C1350.4,863.023 1343.19,866.51 1335.8,869.675L1330.48,871.955L1325.92,861.308L1331.24,859.027C1338.31,856 1345.21,852.664 1351.93,849.036ZM1298.73,870.415L1304.31,868.876L1307.39,880.042L1301.81,881.582C1294.13,883.699 1286.32,885.481 1278.38,886.914L1272.68,887.943L1270.63,876.544L1276.33,875.515C1283.91,874.145 1291.39,872.439 1298.73,870.415ZM1242.08,879.34L1247.87,879.084L1248.38,890.657L1242.6,890.913C1238.62,891.089 1234.61,891.178 1230.59,891.178C1226.57,891.178 1222.56,891.089 1218.58,890.913L1212.8,890.657L1213.31,879.084L1219.1,879.34C1222.91,879.509 1226.74,879.594 1230.59,879.594C1234.44,879.594 1238.27,879.509 1242.08,879.34ZM1184.85,875.515L1190.55,876.544L1188.49,887.943L1182.79,886.914C1174.86,885.481 1167.05,883.698 1159.37,881.582L1153.79,880.042L1156.87,868.875L1162.45,870.415C1169.79,872.439 1177.26,874.145 1184.85,875.515ZM1129.94,859.027L1135.26,861.308L1130.7,871.955L1125.38,869.675C1117.99,866.51 1110.77,863.023 1103.75,859.23L1098.65,856.479L1104.15,846.286L1109.25,849.036C1115.97,852.664 1122.87,856 1129.94,859.027ZM1080.09,830.671L1084.78,834.08L1077.96,843.444L1073.28,840.036C1066.79,835.317 1060.53,830.315 1054.51,825.047L1050.15,821.235L1057.78,812.515L1062.13,816.328C1067.9,821.369 1073.89,826.156 1080.09,830.671ZM983.68,691.645L985.219,697.228L974.052,700.308L972.513,694.724C970.396,687.049 968.613,679.235 967.181,671.301L966.151,665.601L977.551,663.543L978.58,669.242C979.95,676.831 981.655,684.304 983.68,691.645ZM974.754,634.999L975.01,640.786L963.438,641.298L963.182,635.511C963.006,631.531 962.917,627.529 962.917,623.506C962.917,619.482 963.006,615.48 963.182,611.5L963.438,605.714L975.01,606.226L974.754,612.012C974.586,615.822 974.501,619.654 974.501,623.506C974.501,627.357 974.586,631.189 974.754,634.999ZM978.58,577.768L977.551,583.468L966.151,581.409L967.181,575.71C968.614,567.775 970.396,559.962 972.513,552.286L974.053,546.703L985.219,549.782L983.68,555.366C981.655,562.707 979.95,570.18 978.58,577.768ZM995.068,522.854L992.787,528.178L982.14,523.617L984.42,518.293C987.585,510.906 991.072,503.689 994.865,496.661L997.615,491.564L1007.81,497.065L1005.06,502.162C1001.43,508.885 998.095,515.788 995.068,522.854ZM1023.42,473.009L1020.01,477.691L1010.65,470.873L1014.06,466.191C1018.78,459.71 1023.78,453.449 1029.05,447.426L1032.86,443.066L1041.58,450.691L1037.77,455.051C1032.73,460.815 1027.94,466.807 1023.42,473.009ZM1062.13,430.683L1057.78,434.496L1050.15,425.777L1054.51,421.964C1060.53,416.696 1066.79,411.694 1073.28,406.976L1077.96,403.567L1084.78,412.931L1080.09,416.34C1073.89,420.856 1067.9,425.643 1062.13,430.683ZM1109.25,397.975L1104.15,400.725L1098.65,390.531L1103.75,387.781C1110.77,383.988 1117.99,380.501 1125.38,377.337L1130.7,375.056L1135.26,385.704L1129.94,387.984C1122.87,391.011 1115.97,394.347 1109.25,397.975ZM1162.45,376.596L1156.87,378.136L1153.79,366.969L1159.37,365.429C1167.05,363.313 1174.86,361.53 1182.79,360.097L1188.49,359.068L1190.55,370.467L1184.85,371.496C1177.26,372.867 1169.79,374.572 1162.45,376.596Z" style="fill:rgb(235,235,235);"/>
        </g>
    </g>
</svg>
