<?xml version="1.0" encoding="UTF-8" standalone="no"?>
<!DOCTYPE svg PUBLIC "-//W3C//DTD SVG 1.1//EN" "http://www.w3.org/Graphics/SVG/1.1/DTD/svg11.dtd">
<svg width="100%" height="100%" viewBox="0 0 232 247" version="1.1" xmlns="http://www.w3.org/2000/svg" xmlns:xlink="http://www.w3.org/1999/xlink" xml:space="preserve" xmlns:serif="http://www.serif.com/" style="fill-rule:evenodd;clip-rule:evenodd;stroke-linecap:round;stroke-linejoin:round;stroke-miterlimit:1.5;">
    <g transform="matrix(1,0,0,1,-1234.94,-288.145)">
        <g transform="matrix(0.431648,0,0,0.431648,819.295,149.551)">
            <path d="M1219.1,367.671L1213.31,367.927L1212.8,356.355L1218.58,356.099C1222.56,355.923 1226.57,355.834 1230.59,355.834C1234.61,355.834 1238.62,355.923 1242.6,356.099L1248.38,356.355L1247.87,367.927L1242.08,367.671C1238.27,367.502 1234.44,367.417 1230.59,367.417C1226.74,367.417 1222.91,367.502 1219.1,367.671ZM1276.33,371.496L1270.63,370.467L1272.68,359.068L1278.38,360.097C1286.32,361.53 1294.13,363.313 1301.81,365.429L1307.39,366.969L1304.31,378.136L1298.73,376.596C1291.39,374.572 1283.91,372.867 1276.33,371.496ZM1331.24,387.984L1325.92,385.704L1330.48,375.056L1335.8,377.337C1343.19,380.501 1350.41,383.989 1357.43,387.781L1362.53,390.532L1357.03,400.726L1351.93,397.975C1345.21,394.347 1338.31,391.011 1331.24,387.984ZM1381.09,416.34L1376.4,412.931L1383.22,403.567L1387.9,406.976C1394.38,411.694 1400.65,416.696 1406.67,421.964L1411.03,425.777L1403.4,434.496L1399.04,430.683C1393.28,425.643 1387.29,420.856 1381.09,416.34ZM1423.41,455.051L1419.6,450.691L1428.32,443.066L1432.13,447.426C1437.4,453.449 1442.4,459.71 1447.12,466.191L1450.53,470.873L1441.16,477.691L1437.76,473.009C1433.24,466.807 1428.45,460.815 1423.41,455.051ZM1456.12,502.163L1453.37,497.066L1463.56,491.565L1466.31,496.662C1470.11,503.69 1473.59,510.906 1476.76,518.293L1479.04,523.617L1468.39,528.178L1466.11,522.854C1463.08,515.788 1459.75,508.885 1456.12,502.163ZM1477.5,555.366L1475.96,549.783L1487.13,546.704L1488.67,552.287C1490.78,559.963 1492.57,567.776 1494,575.71L1495.03,581.41L1483.63,583.468L1482.6,577.769C1481.23,570.18 1479.52,562.707 1477.5,555.366ZM1486.42,612.012L1486.17,606.226L1497.74,605.714L1498,611.5C1498.17,615.48 1498.26,619.482 1498.26,623.506C1498.26,627.529 1498.17,631.531 1498,635.511L1497.74,641.298L1486.17,640.786L1486.42,634.999C1486.59,631.189 1486.68,627.357 1486.68,623.506C1486.68,619.654 1486.59,615.822 1486.42,612.012ZM1482.6,669.243L1483.63,663.543L1495.03,665.602L1494,671.301C1492.57,679.236 1490.78,687.049 1488.66,694.725L1487.13,700.308L1475.96,697.229L1477.5,691.646C1479.52,684.305 1481.23,676.832 1482.6,669.243ZM1466.11,724.157L1468.39,718.833L1479.04,723.395L1476.76,728.719C1473.59,736.106 1470.11,743.322 1466.31,750.35L1463.56,755.447L1453.37,749.946L1456.12,744.849C1459.75,738.127 1463.08,731.224 1466.11,724.157ZM1437.76,774.002L1441.16,769.32L1450.53,776.138L1447.12,780.82C1442.4,787.301 1437.4,793.562 1432.13,799.586L1428.32,803.945L1419.6,796.32L1423.41,791.96C1428.45,786.196 1433.24,780.204 1437.76,774.002ZM1399.04,816.328L1403.4,812.515L1411.03,821.235L1406.67,825.047C1400.65,830.315 1394.38,835.317 1387.9,840.036L1383.22,843.444L1376.4,834.08L1381.09,830.671C1387.29,826.156 1393.28,821.369 1399.04,816.328ZM1351.93,849.036L1357.03,846.286L1362.53,856.48L1357.43,859.23C1350.4,863.023 1343.19,866.51 1335.8,869.675L1330.48,871.955L1325.92,861.308L1331.24,859.027C1338.31,856 1345.21,852.664 1351.93,849.036ZM1298.73,870.415L1304.31,868.876L1307.39,880.042L1301.81,881.582C1294.13,883.699 1286.32,885.481 1278.38,886.914L1272.68,887.943L1270.63,876.544L1276.33,875.515C1283.91,874.145 1291.39,872.439 1298.73,870.415ZM1242.08,879.34L1247.87,879.084L1248.38,890.657L1242.6,890.913C1238.62,891.089 1234.61,891.178 1230.59,891.178C1226.57,891.178 1222.56,891.089 1218.58,890.913L1212.8,890.657L1213.31,879.084L1219.1,879.34C1222.91,879.509 1226.74,879.594 1230.59,879.594C1234.44,879.594 1238.27,879.509 1242.08,879.34ZM1184.85,875.515L1190.55,876.544L1188.49,887.943L1182.79,886.914C1174.86,885.481 1167.05,883.698 1159.37,881.582L1153.79,880.042L1156.87,868.875L1162.45,870.415C1169.79,872.439 1177.26,874.145 1184.85,875.515ZM1129.94,859.027L1135.26,861.308L1130.7,871.955L1125.38,869.675C1117.99,866.51 1110.77,863.023 1103.75,859.23L1098.65,856.479L1104.15,846.286L1109.25,849.036C1115.97,852.664 1122.87,856 1129.94,859.027ZM1080.09,830.671L1084.78,834.08L1077.96,843.444L1073.28,840.036C1066.79,835.317 1060.53,830.315 1054.51,825.047L1050.15,821.235L1057.78,812.515L1062.13,816.328C1067.9,821.369 1073.89,826.156 1080.09,830.671ZM1037.77,791.96L1041.58,796.32L1032.86,803.945L1029.05,799.586C1023.78,793.562 1018.78,787.301 1014.06,780.82L1010.65,776.138L1020.01,769.32L1023.42,774.002C1027.94,780.204 1032.73,786.196 1037.77,791.96ZM1005.06,744.849L1007.81,749.946L997.615,755.447L994.865,750.35C991.072,743.322 987.585,736.105 984.42,728.718L982.139,723.394L992.787,718.833L995.068,724.157C998.095,731.223 1001.43,738.126 1005.06,744.849ZM983.68,691.645L985.219,697.228L974.052,700.308L972.513,694.724C970.396,687.049 968.613,679.235 967.181,671.301L966.151,665.601L977.551,663.543L978.58,669.242C979.95,676.831 981.655,684.304 983.68,691.645ZM974.754,634.999L975.01,640.786L963.438,641.298L963.182,635.511C963.006,631.531 962.917,627.529 962.917,623.506C962.917,619.482 963.006,615.48 963.182,611.5L963.438,605.714L975.01,606.226L974.754,612.012C974.586,615.822 974.501,619.654 974.501,623.506C974.501,627.357 974.586,631.189 974.754,634.999ZM978.58,577.768L977.551,583.468L966.151,581.409L967.181,575.71C968.614,567.775 970.396,559.962 972.513,552.286L974.053,546.703L985.219,549.782L983.68,555.366C981.655,562.707 979.95,570.18 978.58,577.768ZM995.068,522.854L992.787,528.178L982.14,523.617L984.42,518.293C987.585,510.906 991.072,503.689 994.865,496.661L997.615,491.564L1007.81,497.065L1005.06,502.162C1001.43,508.885 998.095,515.788 995.068,522.854ZM1023.42,473.009L1020.01,477.691L1010.65,470.873L1014.06,466.191C1018.78,459.71 1023.78,453.449 1029.05,447.426L1032.86,443.066L1041.58,450.691L1037.77,455.051C1032.73,460.815 1027.94,466.807 1023.42,473.009ZM1062.13,430.683L1057.78,434.496L1050.15,425.777L1054.51,421.964C1060.53,416.696 1066.79,411.694 1073.28,406.976L1077.96,403.567L1084.78,412.931L1080.09,416.34C1073.89,420.856 1067.9,425.643 1062.13,430.683ZM1109.25,397.975L1104.15,400.725L1098.65,390.531L1103.75,387.781C1110.77,383.988 1117.99,380.501 1125.38,377.337L1130.7,375.056L1135.26,385.704L1129.94,387.984C1122.87,391.011 1115.97,394.347 1109.25,397.975ZM1162.45,376.596L1156.87,378.136L1153.79,366.969L1159.37,365.429C1167.05,363.313 1174.86,361.53 1182.79,360.097L1188.49,359.068L1190.55,370.467L1184.85,371.496C1177.26,372.867 1169.79,374.572 1162.45,376.596Z" style="fill:white;"/>
        </g>
        <g transform="matrix(0.18428,0,0,0.18428,1109.4,285.668)">
            <g transform="matrix(1,0,0,1,26.0926,-313.906)">
                <path d="M1282.12,422.316L1527.67,913.427L1036.56,913.427L1282.12,422.316Z" style="fill:none;stroke:white;stroke-width:54.27px;"/>
            </g>
            <g transform="matrix(1,0,0,1,-219.463,177.205)">
                <path d="M1282.12,422.316L1527.67,913.427L1036.56,913.427L1282.12,422.316Z" style="fill:none;stroke:white;stroke-width:54.27px;"/>
            </g>
            <g transform="matrix(1,0,0,1,271.648,177.205)">
                <path d="M1282.12,422.316L1527.67,913.427L1036.56,913.427L1282.12,422.316Z" style="fill:none;stroke:white;stroke-width:54.27px;"/>
            </g>
        </g>
        <g transform="matrix(0.698036,0,0,0.698036,1040.02,-84.7944)">
            <circle cx="574.402" cy="818.645" r="17.907" style="fill:none;stroke:white;stroke-width:14.33px;"/>
        </g>
        <g transform="matrix(0.698036,0,0,0.698036,859.021,-84.7944)">
            <circle cx="574.402" cy="818.645" r="17.907" style="fill:none;stroke:white;stroke-width:14.33px;"/>
        </g>
        <g transform="matrix(0.698036,0,0,0.698036,949.522,-265.798)">
            <circle cx="574.402" cy="818.645" r="17.907" style="fill:none;stroke:white;stroke-width:14.33px;"/>
        </g>
    </g>
</svg>
